<svg width="30" height="20" fill="none" xmlns="http://www.w3.org/2000/svg"><path d="M15 2.99c3.692 0 6.724 1.728 8.874 3.523A20.09 20.09 0 0126.34 8.97c.218.258.395.483.53.66-.09.192-.21.435-.365.716a13.517 13.517 0 01-1.983 2.722c-1.85 1.964-4.85 3.94-9.522 3.94-4.671 0-7.672-1.976-9.522-3.94a13.514 13.514 0 01-1.983-2.722 11.54 11.54 0 01-.364-.717c.134-.176.31-.4.529-.66a20.09 20.09 0 012.466-2.457C8.276 4.718 11.308 2.99 15 2.99z" fill="#fff" stroke="#333" stroke-width="2"/><path fill-rule="evenodd" clip-rule="evenodd" d="M15 6a4 4 0 110 8 4 4 0 010-8z" fill="#333"/></svg>
