<svg width="10" height="20" fill="none" xmlns="http://www.w3.org/2000/svg"><path fill-rule="evenodd" clip-rule="evenodd" d="M2.616 4.487v2.478H.8v3.03h1.816v9.004h3.73V9.995h2.502s.234-1.453.348-3.041H6.359V4.882c0-.31.407-.726.809-.726H9.2V1H6.437c-3.913 0-3.821 3.033-3.821 3.486z" fill="#5C6BC0"/><path clip-rule="evenodd" d="M2.616 4.487v2.478H.8v3.03h1.816v9.004h3.73V9.995h2.502s.234-1.453.348-3.041H6.359V4.882c0-.31.407-.726.809-.726H9.2V1H6.437c-3.913 0-3.821 3.033-3.821 3.486z" stroke="#000"/><path clip-rule="evenodd" d="M2.616 4.487v2.478H.8v3.03h1.816v9.004h3.73V9.995h2.502s.234-1.453.348-3.041H6.359V4.882c0-.31.407-.726.809-.726H9.2V1H6.437c-3.913 0-3.821 3.033-3.821 3.486z" stroke="url(#paint0_linear)"/><defs><linearGradient id="paint0_linear" x1="5" y1="0" x2="5" y2="20" gradientUnits="userSpaceOnUse"><stop stop-color="#fff"/><stop offset="1" stop-color="#fff" stop-opacity="0"/></linearGradient></defs></svg>