<svg width="51" height="55" fill="none" xmlns="http://www.w3.org/2000/svg">
    <path d="M3 4.065l22.195 9.766.805.354.805-.354L49 4.065v26.58l-23 9.2-23-9.2V4.066z" fill="url(#paint0_linear)" stroke="#000" stroke-width="4"/>
    <path d="M49 49.935l-22.195-9.766-.805-.354-.805.354L3 49.935v-26.58l23-9.2 23 9.2v26.58z" fill="url(#paint1_linear)" stroke="#000" stroke-width="4"/>
    <path fill-rule="evenodd" clip-rule="evenodd" d="M25 11c8.837 0 16 7.163 16 16s-7.163 16-16 16S9 35.837 9 27s7.163-16 16-16z" fill="#fff"/>
    <path d="M24.5 18a8.5 8.5 0 110 17 8.5 8.5 0 010-17z" fill="#2383FD"/>
    <path d="M24.5 18a8.5 8.5 0 110 17 8.5 8.5 0 010-17z" fill="url(#paint2_linear)"/>
    <path d="M24.5 18a8.5 8.5 0 110 17 8.5 8.5 0 010-17z" stroke="#000" stroke-width="4"/>
    <mask id="a" fill="#fff">
        <path fill-rule="evenodd" clip-rule="evenodd" d="M28 25h9-9z"/>
    </mask>
    <path fill-rule="evenodd" clip-rule="evenodd" d="M28 25h9-9z" fill="#000" fill-opacity=".01"/>
    <path d="M28 29h9v-8h-9v8z" fill="#fff" mask="url(#a)"/>
    <defs>
        <linearGradient id="paint0_linear" x1="0" y1="44" x2="52" y2="44" gradientUnits="userSpaceOnUse">
            <stop stop-color="#1B7FFC"/>
            <stop offset="1" stop-color="#1B7FFC"/>
            <stop offset="1" stop-color="#3E90FF"/>
        </linearGradient>
        <linearGradient id="paint1_linear" x1="0" y1="55" x2="52" y2="55" gradientUnits="userSpaceOnUse">
            <stop stop-color="#0FADFF"/>
            <stop offset="1" stop-color="#0FADFF"/>
            <stop offset="1" stop-color="#1FADFF"/>
        </linearGradient>
        <linearGradient id="paint2_linear" x1="12" y1="39" x2="36" y2="39" gradientUnits="userSpaceOnUse">
            <stop stop-color="#0FADFF"/>
            <stop offset="1" stop-color="#0FADFF"/>
            <stop offset="1" stop-color="#1FADFF"/>
        </linearGradient>
    </defs>
</svg>
