<svg width="26" height="15" fill="none" xmlns="http://www.w3.org/2000/svg"><path fill-rule="evenodd" clip-rule="evenodd" d="M24.129 14.933c-.13.017-.262.036-.393.037-1.29.002-2.58 0-3.869.004a.723.723 0 01-.464-.17c-.269-.216-.546-.427-.795-.668-.645-.628-1.274-1.272-1.914-1.905-.2-.198-.413-.38-.623-.567-.108-.1-.245-.123-.385-.12-.19.004-.345.088-.42.26a1.698 1.698 0 00-.142.488c-.032.3-.033.603-.04.903-.005.336-.016.673-.112 1.001a1.964 1.964 0 01-.18.421.692.692 0 01-.611.352c-1.125.026-2.252.042-3.376-.03a1.6 1.6 0 01-.586-.17 9.528 9.528 0 01-2.772-2.014c-.974-1.017-1.86-2.108-2.744-3.2-1.191-1.47-2.22-3.045-3.146-4.685C1.219 4.27.892 3.664.65 3.02a1.493 1.493 0 01-.03-.957c.026-.095.072-.187.125-.271a.399.399 0 01.345-.193l.163-.002c1.169 0 2.337.005 3.506-.004a.749.749 0 01.564.228c.287.283.512.612.713.954.22.374.439.75.632 1.136.425.852.947 1.646 1.499 2.42.27.377.56.74.84 1.108.13.172.31.238.518.243.201.007.284-.074.292-.272.002-.047.001-.094.001-.142l-.001-3.881c0-.101 0-.203-.01-.302-.024-.231-.149-.367-.382-.41-.106-.021-.213-.03-.321-.044-.329-.042-.465-.179-.5-.503-.05-.49.188-.87.656-1.042.201-.074.41-.09.622-.089 1.042.002 2.085 0 3.127 0 .21 0 .423-.01.632.008.22.021.442.05.656.111.456.129.719.433.772.902.013.112.016.224.016.336l.001 2.356c0 .834 0 1.667.002 2.5 0 .081.008.167.03.244.074.253.355.336.59.177.695-.469 1.15-1.122 1.5-1.85.325-.671.605-1.364.91-2.045.243-.54.493-1.076.747-1.612.063-.133.154-.253.239-.374a.363.363 0 01.322-.157c1.514.004 3.025.004 4.538.002.37 0 .663.147.894.423a.69.69 0 01.136.34c.09.585-.115 1.094-.399 1.585-.27.463-.591.891-.94 1.297-.724.84-1.433 1.69-2.053 2.608-.16.236-.296.487-.443.73a.402.402 0 00.042.51c.273.322.537.653.825.96.683.735 1.382 1.45 2.069 2.181.22.235.419.488.622.736.068.082.118.178.184.261.515.65-.125 1.624-.772 1.707z" fill="#1E88E5"/></svg>
